<svg width="32" height="32" viewBox="0 0 32 32" fill="none" xmlns="http://www.w3.org/2000/svg">
<rect width="32" height="32" rx="2" fill="#4EA824" fill-opacity="0.1"/>
<path d="M16.2604 12.6192C14.2534 12.6192 12.6155 14.2571 12.6155 16.2641C12.6155 18.2711 14.2534 19.909 16.2604 19.909C18.2674 19.909 19.9053 18.2711 19.9053 16.2641C19.9053 14.2571 18.2674 12.6192 16.2604 12.6192ZM27.1924 16.2641C27.1924 14.7547 27.2061 13.259 27.1213 11.7524C27.0366 10.0024 26.6373 8.44925 25.3576 7.16956C24.0752 5.88714 22.5248 5.49066 20.7748 5.40589C19.2655 5.32113 17.7698 5.3348 16.2631 5.3348C14.7537 5.3348 13.258 5.32113 11.7514 5.40589C10.0014 5.49066 8.44827 5.88988 7.16859 7.16956C5.88616 8.45199 5.48968 10.0024 5.40491 11.7524C5.32015 13.2618 5.33382 14.7575 5.33382 16.2641C5.33382 17.7707 5.32015 19.2692 5.40491 20.7758C5.48968 22.5258 5.8889 24.0789 7.16859 25.3586C8.45101 26.641 10.0014 27.0375 11.7514 27.1223C13.2608 27.2071 14.7565 27.1934 16.2631 27.1934C17.7725 27.1934 19.2682 27.2071 20.7748 27.1223C22.5248 27.0375 24.078 26.6383 25.3576 25.3586C26.6401 24.0762 27.0366 22.5258 27.1213 20.7758C27.2088 19.2692 27.1924 17.7735 27.1924 16.2641V16.2641ZM16.2604 21.8723C13.1569 21.8723 10.6522 19.3676 10.6522 16.2641C10.6522 13.1606 13.1569 10.6559 16.2604 10.6559C19.3639 10.6559 21.8686 13.1606 21.8686 16.2641C21.8686 19.3676 19.3639 21.8723 16.2604 21.8723ZM22.0983 11.736C21.3737 11.736 20.7885 11.1508 20.7885 10.4262C20.7885 9.70159 21.3737 9.11644 22.0983 9.11644C22.8229 9.11644 23.408 9.70159 23.408 10.4262C23.4083 10.5983 23.3745 10.7687 23.3088 10.9277C23.243 11.0867 23.1466 11.2312 23.0249 11.3528C22.9032 11.4745 22.7588 11.571 22.5998 11.6367C22.4407 11.7025 22.2703 11.7362 22.0983 11.736V11.736Z" fill="#327314"/>
</svg>
