<svg width="32" height="32" viewBox="0 0 32 32" fill="none" xmlns="http://www.w3.org/2000/svg">
<rect width="32" height="32" rx="2" fill="#4EA824" fill-opacity="0.1"/>
<path d="M25.0667 10.2652C21.8667 5.33187 15.3334 3.8652 10.2667 6.93187C5.33336 9.99853 3.73337 16.6652 6.93337 21.5985L7.20003 21.9985L6.13337 25.9985L10.1334 24.9319L10.5334 25.1985C12.2667 26.1319 14.1334 26.6652 16 26.6652C18 26.6652 20 26.1319 21.7334 25.0652C26.6667 21.8652 28.1334 15.3319 25.0667 10.2652V10.2652ZM22.2667 20.5319C21.7334 21.3319 21.0667 21.8652 20.1334 21.9985C19.6 21.9985 18.9334 22.2652 16.2667 21.1985C14 20.1319 12.1334 18.3985 10.8 16.3985C10 15.4652 9.60003 14.2652 9.4667 13.0652C9.4667 11.9985 9.8667 11.0652 10.5334 10.3985C10.8 10.1319 11.0667 9.99853 11.3334 9.99853H12C12.2667 9.99853 12.5334 9.99853 12.6667 10.5319C12.9334 11.1985 13.6 12.7985 13.6 12.9319C13.7334 13.0652 13.7334 13.3319 13.6 13.4652C13.7334 13.7319 13.6 13.9985 13.4667 14.1319C13.3334 14.2652 13.2 14.5319 13.0667 14.6652C12.8 14.7985 12.6667 15.0652 12.8 15.3319C13.3334 16.1319 14 16.9319 14.6667 17.5985C15.4667 18.2652 16.2667 18.7985 17.2 19.1985C17.4667 19.3319 17.7334 19.3319 17.8667 19.0652C18 18.7985 18.6667 18.1319 18.9334 17.8652C19.2 17.5985 19.3334 17.5985 19.6 17.7319L21.7334 18.7985C22 18.9319 22.2667 19.0652 22.4 19.1985C22.5334 19.5985 22.5334 20.1319 22.2667 20.5319V20.5319Z" fill="#327314"/>
</svg>
