<svg width="40" height="40" viewBox="0 0 40 40" fill="none" xmlns="http://www.w3.org/2000/svg">
<path d="M40 20C40 31.0457 31.0457 40 20 40C8.9543 40 0 31.0457 0 20C0 8.95431 8.9543 0 20 0C31.0457 0 40 8.95431 40 20Z" fill="white"/>
<path d="M40 20C40 31.0457 31.0457 40 20 40C8.9543 40 0 31.0457 0 20C0 8.95431 8.9543 0 20 0C31.0457 0 40 8.95431 40 20Z" fill="white"/>
<path d="M29 25V15C29 13.9 28.1 13 27 13H14C12.9 13 12 13.9 12 15V25C12 26.1 12.9 27 14 27H27C28.1 27 29 26.1 29 25ZM18 24V16L24 20L18 24Z" fill="#333333"/>
</svg>
